<?xml version="1.0" encoding="iso-8859-1"?>
<!-- Generator: Adobe Illustrator 24.0.3, SVG Export Plug-In . SVG Version: 6.00 Build 0)  -->
<svg version="1.1" id="Layer_1" xmlns="http://www.w3.org/2000/svg" xmlns:xlink="http://www.w3.org/1999/xlink" x="0px" y="0px"
	 viewBox="0 0 216.1 106.9" style="enable-background:new 0 0 216.1 106.9;" xml:space="preserve">
<title>Logo-color</title>
<g>
	<g>
		<rect x="35.411" y="63.071" style="fill:#2C2C29;" width="4.067" height="3.42"/>
		<rect x="41.45" y="63.071" style="fill:#2C2C29;" width="4.067" height="3.42"/>
		<rect x="51.3" y="63.061" style="fill:#2C2C29;" width="4.05" height="3.418"/>
		<path style="fill:#2C2C29;" d="M40.909,80.257h-0.916c-2.115-0.158-2.971-1.346-2.971-4.101c0-3.052,1.062-4.415,3.452-4.415
			c2.415,0,3.491,1.363,3.491,4.415c0,2.716-0.913,3.943-3.048,4.101H40.909z M8.574,69.851C3.513,70.192,0,73.755,0,78.593
			c0,5.813,3.813,9.569,9.717,9.569c3.677,0,6.872-1.598,8.76-4.382l0.071-0.106H50.21v-0.149l0.29,0.129l7.366,0.02
			c5.234,0,7.369-2.558,7.369-8.83l0.008-11.777H61.16l-0.008,12.016c0,3.529-1.025,5.172-3.23,5.172h-2.707l0.141-0.333
			c0.025-0.055,0.021-0.142,0.018-0.212v-0.064V68.45h-4.087v9.48c0,1.127-0.142,2.328-1.844,2.328H47.31l0.126-0.327
			c0.37-0.966,0.558-2.236,0.558-3.774c0-5.306-2.391-7.777-7.52-7.777c-4.963,0-7.48,2.616-7.48,7.777
			c0,1.619,0.181,2.817,0.571,3.77l0.135,0.331h-13.73l-0.005-17.199h-4.067l0.005,15.461c0,3.228-2.758,5.857-6.147,5.857
			c-4.176,0-5.833-2.998-5.985-5.564v-0.31c0-2.595,1.965-4.712,4.804-5.209V69.851z"/>
		<rect x="67.678" y="63.059" style="fill:#2C2C29;" width="4.046" height="20.615"/>
		<rect x="81.49" y="63.059" style="fill:#2C2C29;" width="4.067" height="3.42"/>
		<rect x="87.529" y="63.059" style="fill:#2C2C29;" width="4.067" height="3.42"/>
		<path style="fill:#2C2C29;" d="M86.145,80.218c-2.497,0-3.471-1.018-3.471-3.636c0-2.591,0.974-3.6,3.471-3.6
			c2.486,0,3.454,1.008,3.454,3.6c0,1.254-0.26,2.162-0.798,2.778l-0.003,0.009C88.27,79.931,87.38,80.218,86.145,80.218
			 M86.145,69.414c-5.058,0-7.518,2.332-7.518,7.13c0,4.933,2.318,7.132,7.518,7.132c2.726,0,4.604-0.546,5.745-1.668
			c0.626-0.592,1.059-1.306,1.322-2.186l0.004-0.007c0.284-0.896,0.429-1.994,0.429-3.27C93.645,71.613,91.335,69.414,86.145,69.414
			"/>
		<path style="fill:#2C2C29;" d="M90.436,88.222h2.33c5.749,0,8.426-3.217,8.426-10.131v-9.635h-4.167v9.635
			c0,5.539-2.249,6.589-6.398,6.589h-0.191V88.222z"/>
		<rect x="103.878" y="63.039" style="fill:#2C2C29;" width="4.05" height="20.636"/>
		<rect x="113.697" y="63.057" style="fill:#2C2C29;" width="4.169" height="3.4"/>
		<path style="fill:#2C2C29;" d="M107.112,88.222h2.33c5.749,0,8.426-3.217,8.426-10.131v-9.635H113.7v9.635
			c0,5.539-2.248,6.589-6.398,6.589h-0.19V88.222z"/>
		<path style="fill:#2C2C29;" d="M130.324,78.846h-3.227c-2.348,0-3.263-0.997-3.263-3.56c0-2.577,0.946-3.628,3.263-3.628
			c2.321,0,3.227,1.017,3.227,3.628V78.846z M121.737,88.235h4.645c5.287,0,7.748-1.848,7.748-5.813v-7.137
			c0-4.719-2.167-6.824-7.033-6.824c-4.768,0-7.086,2.232-7.086,6.824c0,4.759,2.096,6.79,7.016,6.79h3.296v0.384
			c0,1.205-0.499,1.925-1.567,2.263c-0.955,0.303-2.333,0.305-4.078,0.301h-2.973L121.737,88.235z"/>
	</g>
	<g>
		<path style="fill:#2C2C29;" d="M0.767,95.443c0-0.078,0.039-0.118,0.118-0.118h1.403c0.095,0,0.157,0.04,0.189,0.118l2.028,4.576
			h0.047l1.993-4.576c0.031-0.078,0.094-0.118,0.189-0.118h1.379c0.079,0,0.118,0.04,0.118,0.118v7.783
			c0,0.079-0.04,0.118-0.118,0.118H6.781c-0.079,0-0.118-0.039-0.118-0.118V98.71H6.616l-1.486,3.385
			c-0.047,0.103-0.122,0.153-0.224,0.153H4.093c-0.103,0-0.177-0.051-0.224-0.153L2.383,98.71H2.335v4.517
			c0,0.079-0.04,0.118-0.118,0.118H0.885c-0.079,0-0.118-0.039-0.118-0.118V95.443z"/>
		<path style="fill:#2C2C29;" d="M9.765,95.443c0-0.078,0.039-0.118,0.118-0.118h1.498c0.078,0,0.118,0.04,0.118,0.118v7.783
			c0,0.079-0.04,0.118-0.118,0.118H9.882c-0.079,0-0.118-0.039-0.118-0.118V95.443z"/>
		<path style="fill:#2C2C29;" d="M13.031,95.443c0-0.078,0.039-0.118,0.118-0.118h1.416c0.086,0,0.153,0.04,0.2,0.118l2.831,5.048
			h0.059v-5.048c0-0.078,0.04-0.118,0.118-0.118h1.333c0.079,0,0.118,0.04,0.118,0.118v7.783c0,0.079-0.039,0.118-0.118,0.118
			h-1.403c-0.086,0-0.153-0.039-0.201-0.118l-2.842-5.035H14.6v5.035c0,0.079-0.04,0.118-0.118,0.118h-1.333
			c-0.079,0-0.118-0.039-0.118-0.118V95.443z"/>
		<path style="fill:#2C2C29;" d="M20.755,95.443c0-0.078,0.039-0.118,0.118-0.118h1.498c0.078,0,0.118,0.04,0.118,0.118v7.783
			c0,0.079-0.04,0.118-0.118,0.118h-1.498c-0.079,0-0.118-0.039-0.118-0.118V95.443z"/>
		<path style="fill:#2C2C29;" d="M26.723,103.475c-0.315,0-0.624-0.029-0.926-0.089c-0.303-0.059-0.588-0.137-0.855-0.235
			c-0.268-0.099-0.513-0.215-0.737-0.348c-0.224-0.134-0.415-0.275-0.572-0.425c-0.063-0.063-0.067-0.13-0.012-0.201l0.896-1.025
			c0.047-0.062,0.106-0.066,0.177-0.012c0.267,0.212,0.578,0.402,0.931,0.571c0.354,0.17,0.743,0.254,1.167,0.254
			c0.425,0,0.749-0.088,0.973-0.266c0.224-0.177,0.336-0.406,0.336-0.689c0-0.236-0.086-0.429-0.259-0.578s-0.5-0.255-0.979-0.318
			l-0.424-0.059c-0.818-0.11-1.445-0.359-1.881-0.749c-0.437-0.389-0.655-0.941-0.655-1.657c0-0.369,0.067-0.705,0.201-1.008
			s0.324-0.561,0.572-0.772s0.546-0.378,0.896-0.495c0.35-0.118,0.741-0.177,1.173-0.177c0.535,0,1.038,0.074,1.509,0.224
			s0.876,0.354,1.215,0.613c0.071,0.047,0.079,0.106,0.023,0.177l-0.719,1.073c-0.047,0.063-0.102,0.075-0.165,0.035
			c-0.307-0.204-0.611-0.357-0.914-0.46c-0.303-0.102-0.619-0.153-0.949-0.153c-0.354,0-0.621,0.083-0.802,0.248
			c-0.181,0.165-0.271,0.373-0.271,0.625c0,0.229,0.092,0.417,0.277,0.566c0.185,0.149,0.509,0.255,0.973,0.318l0.425,0.059
			c0.833,0.11,1.462,0.359,1.887,0.749c0.424,0.389,0.637,0.949,0.637,1.681c0,0.361-0.067,0.697-0.201,1.008
			c-0.133,0.311-0.332,0.578-0.595,0.802c-0.264,0.225-0.592,0.399-0.985,0.525C27.697,103.411,27.241,103.475,26.723,103.475z"/>
		<path style="fill:#2C2C29;" d="M32.666,103.345c-0.079,0-0.118-0.039-0.118-0.118v-6.285c0-0.047-0.023-0.071-0.071-0.071h-2.028
			c-0.079,0-0.118-0.039-0.118-0.117v-1.31c0-0.078,0.039-0.118,0.118-0.118h5.932c0.079,0,0.118,0.04,0.118,0.118v1.31
			c0,0.078-0.04,0.117-0.118,0.117h-2.028c-0.047,0-0.071,0.024-0.071,0.071v6.285c0,0.079-0.039,0.118-0.118,0.118H32.666z"/>
		<path style="fill:#2C2C29;" d="M41.9,103.345c-0.086,0-0.146-0.039-0.177-0.118l-1.38-2.937H39.27
			c-0.047,0-0.071,0.024-0.071,0.071v2.865c0,0.079-0.04,0.118-0.118,0.118h-1.498c-0.079,0-0.118-0.039-0.118-0.118v-7.783
			c0-0.078,0.039-0.118,0.118-0.118h3.196c0.409,0,0.78,0.062,1.115,0.184c0.334,0.122,0.621,0.293,0.861,0.513
			s0.424,0.483,0.554,0.79s0.195,0.641,0.195,1.002c0,0.52-0.126,0.972-0.377,1.356c-0.252,0.386-0.602,0.677-1.05,0.873l1.58,3.16
			c0.016,0.039,0.016,0.073,0,0.101c-0.016,0.027-0.043,0.041-0.083,0.041H41.9z M40.685,98.816c0.331,0,0.594-0.091,0.79-0.271
			c0.197-0.181,0.295-0.425,0.295-0.731c0-0.298-0.098-0.538-0.295-0.719c-0.196-0.181-0.459-0.271-0.79-0.271H39.27
			c-0.047,0-0.071,0.023-0.071,0.071v1.851c0,0.048,0.023,0.071,0.071,0.071H40.685z"/>
		<path style="fill:#2C2C29;" d="M46.346,103.345c-0.079,0-0.118-0.039-0.118-0.118v-3.078l-2.371-4.705
			c-0.031-0.078-0.004-0.118,0.083-0.118h1.533c0.086,0,0.146,0.04,0.177,0.118l1.451,2.925h0.036l1.45-2.925
			c0.031-0.078,0.09-0.118,0.177-0.118h1.486c0.039,0,0.066,0.013,0.083,0.036c0.016,0.023,0.016,0.051,0,0.082l-2.371,4.705v3.078
			c0,0.079-0.04,0.118-0.118,0.118H46.346z"/>
		<path style="fill:#2C2C29;" d="M56.629,103.475c-0.7,0-1.311-0.161-1.834-0.483s-0.886-0.81-1.091-1.463
			c-0.047-0.142-0.084-0.278-0.112-0.412c-0.028-0.134-0.049-0.283-0.065-0.448c-0.016-0.165-0.028-0.354-0.036-0.566
			c-0.008-0.212-0.012-0.468-0.012-0.767s0.004-0.554,0.012-0.767c0.008-0.212,0.02-0.4,0.036-0.565
			c0.016-0.165,0.037-0.314,0.065-0.448c0.027-0.134,0.064-0.271,0.112-0.413c0.205-0.645,0.568-1.13,1.091-1.456
			s1.134-0.489,1.834-0.489c0.699,0,1.311,0.163,1.833,0.489s0.886,0.812,1.091,1.456c0.047,0.142,0.084,0.279,0.112,0.413
			c0.027,0.134,0.049,0.283,0.065,0.448c0.016,0.165,0.027,0.354,0.035,0.565c0.008,0.213,0.012,0.468,0.012,0.767
			s-0.004,0.555-0.012,0.767c-0.008,0.213-0.02,0.401-0.035,0.566c-0.016,0.165-0.038,0.314-0.065,0.448
			c-0.028,0.134-0.065,0.271-0.112,0.412c-0.205,0.653-0.568,1.141-1.091,1.463S57.329,103.475,56.629,103.475z M56.629,101.941
			c0.33,0,0.601-0.078,0.813-0.236c0.212-0.156,0.361-0.373,0.448-0.648c0.023-0.07,0.043-0.151,0.059-0.241
			c0.016-0.091,0.029-0.201,0.041-0.33c0.012-0.13,0.02-0.289,0.023-0.478c0.004-0.189,0.006-0.413,0.006-0.673
			c0-0.259-0.002-0.483-0.006-0.672s-0.012-0.348-0.023-0.478s-0.025-0.24-0.041-0.33c-0.016-0.091-0.036-0.171-0.059-0.242
			c-0.087-0.275-0.236-0.491-0.448-0.648s-0.483-0.236-0.813-0.236c-0.331,0-0.602,0.079-0.814,0.236s-0.362,0.373-0.448,0.648
			c-0.023,0.071-0.043,0.151-0.059,0.242c-0.016,0.09-0.03,0.2-0.042,0.33s-0.02,0.289-0.023,0.478
			c-0.004,0.188-0.006,0.413-0.006,0.672c0,0.26,0.001,0.483,0.006,0.673c0.004,0.188,0.012,0.348,0.023,0.478
			c0.012,0.129,0.025,0.239,0.042,0.33c0.016,0.09,0.035,0.171,0.059,0.241c0.086,0.275,0.236,0.492,0.448,0.648
			C56.028,101.863,56.299,101.941,56.629,101.941z"/>
		<path style="fill:#2C2C29;" d="M61.099,95.443c0-0.078,0.039-0.118,0.118-0.118h5.142c0.079,0,0.118,0.04,0.118,0.118v1.262
			c0,0.079-0.04,0.118-0.118,0.118h-3.455c-0.047,0-0.071,0.023-0.071,0.071v1.686c0,0.048,0.023,0.071,0.071,0.071h2.877
			c0.079,0,0.118,0.039,0.118,0.118v1.25c0,0.078-0.04,0.117-0.118,0.117h-2.877c-0.047,0-0.071,0.024-0.071,0.071v3.019
			c0,0.079-0.04,0.118-0.118,0.118h-1.498c-0.079,0-0.118-0.039-0.118-0.118V95.443z"/>
		<path style="fill:#2C2C29;" d="M72.089,103.345c-0.079,0-0.118-0.039-0.118-0.118v-6.285c0-0.047-0.023-0.071-0.071-0.071h-2.028
			c-0.079,0-0.118-0.039-0.118-0.117v-1.31c0-0.078,0.039-0.118,0.118-0.118h5.932c0.079,0,0.118,0.04,0.118,0.118v1.31
			c0,0.078-0.04,0.117-0.118,0.117h-2.028c-0.047,0-0.071,0.024-0.071,0.071v6.285c0,0.079-0.039,0.118-0.118,0.118H72.089z"/>
		<path style="fill:#2C2C29;" d="M81.323,103.345c-0.086,0-0.146-0.039-0.177-0.118l-1.38-2.937h-1.073
			c-0.047,0-0.071,0.024-0.071,0.071v2.865c0,0.079-0.04,0.118-0.118,0.118h-1.498c-0.079,0-0.118-0.039-0.118-0.118v-7.783
			c0-0.078,0.039-0.118,0.118-0.118h3.196c0.409,0,0.78,0.062,1.115,0.184c0.334,0.122,0.621,0.293,0.861,0.513
			s0.424,0.483,0.554,0.79s0.195,0.641,0.195,1.002c0,0.52-0.126,0.972-0.377,1.356c-0.252,0.386-0.602,0.677-1.05,0.873l1.58,3.16
			c0.016,0.039,0.016,0.073,0,0.101c-0.016,0.027-0.043,0.041-0.083,0.041H81.323z M80.108,98.816c0.331,0,0.594-0.091,0.79-0.271
			c0.197-0.181,0.295-0.425,0.295-0.731c0-0.298-0.098-0.538-0.295-0.719c-0.196-0.181-0.459-0.271-0.79-0.271h-1.415
			c-0.047,0-0.071,0.023-0.071,0.071v1.851c0,0.048,0.023,0.071,0.071,0.071H80.108z"/>
		<path style="fill:#2C2C29;" d="M86.406,95.443c0.023-0.078,0.074-0.118,0.153-0.118h1.486c0.078,0,0.129,0.04,0.153,0.118
			l2.712,7.783c0.023,0.079-0.004,0.118-0.083,0.118h-1.533c-0.079,0-0.13-0.039-0.153-0.118l-0.46-1.403h-2.807l-0.448,1.403
			c-0.023,0.079-0.075,0.118-0.153,0.118h-1.545c-0.079,0-0.106-0.039-0.083-0.118L86.406,95.443z M88.21,100.35l-0.908-2.807
			h-0.035l-0.908,2.807H88.21z"/>
		<path style="fill:#2C2C29;" d="M91.842,95.443c0-0.078,0.039-0.118,0.118-0.118h1.416c0.086,0,0.153,0.04,0.2,0.118l2.831,5.048
			h0.059v-5.048c0-0.078,0.04-0.118,0.118-0.118h1.333c0.079,0,0.118,0.04,0.118,0.118v7.783c0,0.079-0.039,0.118-0.118,0.118
			h-1.403c-0.086,0-0.153-0.039-0.201-0.118l-2.842-5.035H93.41v5.035c0,0.079-0.04,0.118-0.118,0.118h-1.333
			c-0.079,0-0.118-0.039-0.118-0.118V95.443z"/>
		<path style="fill:#2C2C29;" d="M102.267,103.475c-0.315,0-0.624-0.029-0.926-0.089c-0.303-0.059-0.588-0.137-0.855-0.235
			c-0.268-0.099-0.513-0.215-0.737-0.348c-0.224-0.134-0.415-0.275-0.572-0.425c-0.063-0.063-0.067-0.13-0.012-0.201l0.896-1.025
			c0.047-0.062,0.106-0.066,0.177-0.012c0.267,0.212,0.578,0.402,0.931,0.571c0.354,0.17,0.743,0.254,1.167,0.254
			c0.425,0,0.749-0.088,0.973-0.266c0.224-0.177,0.336-0.406,0.336-0.689c0-0.236-0.086-0.429-0.259-0.578s-0.5-0.255-0.979-0.318
			l-0.424-0.059c-0.818-0.11-1.445-0.359-1.881-0.749c-0.437-0.389-0.655-0.941-0.655-1.657c0-0.369,0.067-0.705,0.201-1.008
			s0.324-0.561,0.572-0.772s0.546-0.378,0.896-0.495c0.35-0.118,0.741-0.177,1.173-0.177c0.535,0,1.038,0.074,1.509,0.224
			s0.876,0.354,1.215,0.613c0.071,0.047,0.079,0.106,0.023,0.177l-0.719,1.073c-0.047,0.063-0.102,0.075-0.165,0.035
			c-0.307-0.204-0.611-0.357-0.914-0.46c-0.303-0.102-0.619-0.153-0.949-0.153c-0.354,0-0.621,0.083-0.802,0.248
			c-0.181,0.165-0.271,0.373-0.271,0.625c0,0.229,0.092,0.417,0.277,0.566c0.185,0.149,0.509,0.255,0.973,0.318l0.425,0.059
			c0.833,0.11,1.462,0.359,1.887,0.749c0.424,0.389,0.637,0.949,0.637,1.681c0,0.361-0.067,0.697-0.201,1.008
			c-0.133,0.311-0.332,0.578-0.595,0.802c-0.264,0.225-0.592,0.399-0.985,0.525C103.242,103.411,102.786,103.475,102.267,103.475z"
			/>
		<path style="fill:#2C2C29;" d="M106.701,103.345c-0.079,0-0.118-0.039-0.118-0.118v-7.783c0-0.078,0.039-0.118,0.118-0.118h3.114
			c0.432,0,0.821,0.063,1.167,0.189s0.641,0.303,0.885,0.53c0.243,0.229,0.429,0.499,0.554,0.813
			c0.126,0.314,0.189,0.665,0.189,1.05c0,0.377-0.065,0.724-0.195,1.038c-0.129,0.314-0.314,0.586-0.554,0.813
			c-0.24,0.229-0.533,0.405-0.879,0.53c-0.346,0.126-0.735,0.189-1.167,0.189h-1.427c-0.047,0-0.071,0.023-0.071,0.07v2.677
			c0,0.079-0.04,0.118-0.118,0.118H106.701z M109.708,98.981c0.369,0,0.656-0.097,0.861-0.289c0.204-0.192,0.307-0.454,0.307-0.784
			s-0.103-0.594-0.307-0.79c-0.205-0.196-0.492-0.295-0.861-0.295h-1.321c-0.047,0-0.071,0.023-0.071,0.071v2.016
			c0,0.048,0.023,0.071,0.071,0.071H109.708z"/>
		<path style="fill:#2C2C29;" d="M116.654,103.475c-0.7,0-1.312-0.161-1.834-0.483s-0.887-0.81-1.091-1.463
			c-0.047-0.142-0.085-0.278-0.112-0.412s-0.049-0.283-0.064-0.448s-0.027-0.354-0.035-0.566c-0.008-0.212-0.012-0.468-0.012-0.767
			s0.004-0.554,0.012-0.767c0.008-0.212,0.02-0.4,0.035-0.565s0.037-0.314,0.064-0.448s0.065-0.271,0.112-0.413
			c0.204-0.645,0.568-1.13,1.091-1.456s1.134-0.489,1.834-0.489c0.699,0,1.311,0.163,1.834,0.489
			c0.522,0.326,0.886,0.812,1.091,1.456c0.047,0.142,0.084,0.279,0.111,0.413s0.05,0.283,0.065,0.448s0.027,0.354,0.035,0.565
			c0.008,0.213,0.012,0.468,0.012,0.767s-0.004,0.555-0.012,0.767c-0.008,0.213-0.02,0.401-0.035,0.566s-0.038,0.314-0.065,0.448
			s-0.064,0.271-0.111,0.412c-0.205,0.653-0.568,1.141-1.091,1.463C117.965,103.313,117.354,103.475,116.654,103.475z
			 M116.654,101.941c0.33,0,0.602-0.078,0.813-0.236c0.212-0.156,0.361-0.373,0.448-0.648c0.023-0.07,0.043-0.151,0.059-0.241
			c0.016-0.091,0.029-0.201,0.042-0.33c0.012-0.13,0.02-0.289,0.023-0.478c0.004-0.189,0.006-0.413,0.006-0.673
			c0-0.259-0.002-0.483-0.006-0.672s-0.012-0.348-0.023-0.478c-0.013-0.13-0.026-0.24-0.042-0.33
			c-0.016-0.091-0.035-0.171-0.059-0.242c-0.087-0.275-0.236-0.491-0.448-0.648s-0.483-0.236-0.813-0.236s-0.602,0.079-0.813,0.236
			c-0.213,0.157-0.362,0.373-0.448,0.648c-0.023,0.071-0.044,0.151-0.06,0.242c-0.016,0.09-0.029,0.2-0.041,0.33
			s-0.02,0.289-0.023,0.478s-0.006,0.413-0.006,0.672c0,0.26,0.002,0.483,0.006,0.673c0.004,0.188,0.012,0.348,0.023,0.478
			c0.012,0.129,0.025,0.239,0.041,0.33c0.016,0.09,0.036,0.171,0.06,0.241c0.086,0.275,0.235,0.492,0.448,0.648
			C116.053,101.863,116.324,101.941,116.654,101.941z"/>
		<path style="fill:#2C2C29;" d="M125.557,103.345c-0.086,0-0.146-0.039-0.177-0.118L124,100.29h-1.072
			c-0.048,0-0.071,0.024-0.071,0.071v2.865c0,0.079-0.039,0.118-0.118,0.118h-1.497c-0.079,0-0.118-0.039-0.118-0.118v-7.783
			c0-0.078,0.039-0.118,0.118-0.118h3.195c0.409,0,0.78,0.062,1.114,0.184s0.621,0.293,0.861,0.513
			c0.239,0.22,0.425,0.483,0.555,0.79c0.129,0.307,0.194,0.641,0.194,1.002c0,0.52-0.126,0.972-0.378,1.356
			c-0.251,0.386-0.602,0.677-1.049,0.873l1.58,3.16c0.016,0.039,0.016,0.073,0,0.101s-0.044,0.041-0.083,0.041H125.557z
			 M124.343,98.816c0.33,0,0.593-0.091,0.79-0.271c0.196-0.181,0.295-0.425,0.295-0.731c0-0.298-0.099-0.538-0.295-0.719
			c-0.197-0.181-0.46-0.271-0.79-0.271h-1.415c-0.048,0-0.071,0.023-0.071,0.071v1.851c0,0.048,0.023,0.071,0.071,0.071H124.343z"/>
		<path style="fill:#2C2C29;" d="M130.227,103.345c-0.078,0-0.117-0.039-0.117-0.118v-6.285c0-0.047-0.024-0.071-0.071-0.071h-2.028
			c-0.079,0-0.118-0.039-0.118-0.117v-1.31c0-0.078,0.039-0.118,0.118-0.118h5.932c0.079,0,0.118,0.04,0.118,0.118v1.31
			c0,0.078-0.039,0.117-0.118,0.117h-2.028c-0.047,0-0.07,0.024-0.07,0.071v6.285c0,0.079-0.04,0.118-0.118,0.118H130.227z"/>
	</g>
	<g>
		<g>
			<rect x="167.299" y="57.537" style="fill:#0091A6;" width="5.381" height="14.04"/>
			<rect x="167.299" y="40.125" style="fill:#0091A6;" width="5.381" height="15.474"/>
			<path style="fill:#0091A6;" d="M172.193,27.799l-0.393-0.731c-0.249-0.41-0.495-0.822-0.739-1.249
				c-0.283-0.519-0.601-1.016-0.936-1.529c-0.334,0.506-0.653,1.001-0.946,1.519c-0.241,0.415-0.491,0.826-0.739,1.233l-0.688,1.245
				c-0.155,0.275-0.306,0.555-0.453,0.835v9.273h5.382v-9.692c-0.07-0.132-0.138-0.262-0.211-0.394L172.193,27.799z"/>
			<path style="fill:#0091A6;" d="M182.81,77.913v6.141c0,6.148-4.348,11.293-10.128,12.531V86.38H167.3v10.205
				c-5.783-1.238-10.13-6.384-10.13-12.531v-6.141l-4.897,8.829l0.035,0.196c1.281,7.907,7.528,13.842,15.271,14.871l2.47,1.684
				l2.504-1.707c7.673-1.085,13.845-6.998,15.123-14.849l0.031-0.197L182.81,77.913z"/>
			<path style="fill:#0091A6;" d="M170.802,15.098c-0.215-0.236-0.425-0.473-0.64-0.708c-0.068-0.082-0.14-0.161-0.213-0.24
				c-0.073-0.081-0.145-0.16-0.217-0.242c-0.335-0.372-0.674-0.736-1.022-1.091c-0.729-0.712-1.437-1.429-2.167-2.094
				c-0.749-0.644-1.474-1.287-2.207-1.889c-0.749-0.584-1.484-1.142-2.21-1.676c-0.715-0.546-1.464-1.004-2.169-1.468
				c-0.712-0.453-1.385-0.907-2.08-1.276c-0.68-0.375-1.336-0.738-1.957-1.077c-0.623-0.342-1.244-0.612-1.814-0.882
				c-1.149-0.53-2.141-0.988-3.005-1.282c-1.702-0.63-2.686-0.934-2.686-0.934s0.77,0.709,2.134,1.861
				c0.696,0.557,1.497,1.289,2.428,2.094c0.947,0.783,1.955,1.733,3.068,2.734c0.563,0.487,1.118,1.033,1.695,1.593
				c0.567,0.567,1.201,1.095,1.776,1.724c0.593,0.601,1.201,1.219,1.823,1.85c0.535,0.607,1.101,1.202,1.667,1.812
				c1.758,0.267,3.406,0.603,4.98,1.02l0.688,0.18l0.214,0.056l0.128,0.034l0.345,0.09l0.428,0.114
				c0.093,0.028,0.177,0.052,0.266,0.081c0.096-0.029,0.189-0.058,0.289-0.088l0.574-0.151
				C170.881,15.196,170.839,15.147,170.802,15.098"/>
			<path style="fill:#0091A6;" d="M168.906,15.834c-0.004,0.006-0.011,0.014-0.018,0.019c0.018-0.002,0.028-0.008,0.045-0.013
				c-0.009-0.002-0.017-0.006-0.017-0.006"/>
			<path style="fill:#0091A6;" d="M171.295,14.69l0.037,0.044c0.09,0.109,0.181,0.22,0.271,0.331l0.521-0.137
				c1.672-0.445,3.422-0.797,5.301-1.072c0.542-0.571,1.08-1.129,1.591-1.699c0.629-0.628,1.24-1.241,1.838-1.837
				c0.58-0.625,1.215-1.149,1.792-1.709c0.581-0.555,1.139-1.097,1.706-1.58c1.118-0.995,2.139-1.933,3.088-2.708
				c0.938-0.797,1.743-1.524,2.444-2.076c1.376-1.138,2.15-1.843,2.15-1.843s-0.985,0.297-2.694,0.911
				c-0.864,0.289-1.861,0.739-3.011,1.257c-0.579,0.267-1.199,0.531-1.821,0.868c-0.626,0.339-1.281,0.694-1.969,1.064
				c-0.694,0.362-1.374,0.81-2.089,1.258c-0.708,0.459-1.46,0.911-2.179,1.45c-0.73,0.528-1.471,1.08-2.225,1.658
				c-0.738,0.596-1.468,1.235-2.225,1.872c-0.735,0.658-1.446,1.369-2.182,2.075c-0.352,0.355-0.698,0.724-1.042,1.096
				c0.144,0.158,0.289,0.318,0.427,0.477L171.295,14.69z"/>
			<path style="fill:#0091A6;" d="M181.833,42.039c-0.059-1.577-0.263-3.276-0.557-5.07c-0.32-1.783-0.749-3.658-1.353-5.555
				c-0.471-1.477-1.02-2.982-1.672-4.465l-2.903-1.391c-0.381-0.164-0.758-0.329-1.138-0.496c-0.635-0.281-1.292-0.569-1.941-0.819
				c-0.313-0.122-0.629-0.247-0.939-0.371c-0.238-0.097-0.481-0.193-0.722-0.289c-0.086-0.032-0.169-0.067-0.255-0.1
				c0.051,0.084,0.107,0.166,0.158,0.248c0.387,0.597,0.774,1.193,1.116,1.812c0.234,0.418,0.48,0.828,0.728,1.237
				c0.229,0.421,0.453,0.841,0.682,1.257c0.462,0.829,0.855,1.686,1.288,2.514c0.394,0.842,0.78,1.682,1.146,2.511
				c0.722,1.667,1.351,3.315,1.906,4.899c0.532,1.591,1.022,3.117,1.395,4.549c0.785,2.86,1.261,5.326,1.558,7.077
				c0.131,0.876,0.245,1.572,0.296,2.05c0.057,0.482,0.088,0.738,0.088,0.738s0.089-0.245,0.22-0.716
				c0.114-0.47,0.317-1.163,0.457-2.062c0.151-0.898,0.32-1.996,0.399-3.269C181.884,45.055,181.905,43.611,181.833,42.039"/>
			<path style="fill:#0091A6;" d="M169.927,23.419c-0.1,0.04-0.204,0.079-0.303,0.12c-0.283,0.108-0.567,0.219-0.844,0.33
				c-0.309,0.128-0.621,0.252-0.938,0.375c-0.649,0.249-1.306,0.539-1.94,0.817c-0.38,0.167-0.757,0.333-1.109,0.482l-2.814,1.351
				c-0.661,1.472-1.219,2.964-1.7,4.43c-0.618,1.89-1.063,3.763-1.398,5.545c-0.307,1.79-0.526,3.486-0.598,5.062
				c-0.083,1.577-0.076,3.018,0.01,4.29c0.065,1.271,0.227,2.374,0.373,3.272c0.131,0.9,0.327,1.596,0.439,2.064
				c0.127,0.473,0.217,0.716,0.217,0.716s0.031-0.254,0.09-0.736c0.059-0.477,0.176-1.17,0.314-2.046
				c0.31-1.749,0.808-4.21,1.612-7.065c0.385-1.429,0.892-2.95,1.434-4.536c0.571-1.583,1.212-3.223,1.944-4.886
				c0.373-0.829,0.769-1.662,1.167-2.502c0.439-0.824,0.839-1.676,1.31-2.502c0.227-0.414,0.46-0.832,0.69-1.251
				c0.252-0.407,0.498-0.817,0.739-1.231c0.345-0.613,0.733-1.202,1.122-1.792c0.066-0.098,0.128-0.197,0.194-0.294
				C169.934,23.428,169.931,23.423,169.927,23.419"/>
			<path style="fill:#80CDC6;" d="M168.563,15.743c-0.114-0.029-0.228-0.059-0.345-0.09c-0.132-0.036-0.262-0.068-0.393-0.102
				c-1.385-0.367-2.769-0.65-4.148-0.881c-0.166-0.029-0.328-0.054-0.494-0.082c-0.165-0.023-0.331-0.054-0.495-0.08
				c-0.638-0.094-1.271-0.178-1.899-0.25c-2.002-0.235-3.961-0.322-5.826-0.322c-0.279,0-0.557,0.003-0.829,0.005
				c-2.117,0.065-4.106,0.21-5.925,0.496c-1.818,0.266-3.461,0.612-4.898,1.001c-1.437,0.373-2.659,0.812-3.65,1.185
				c-0.997,0.36-1.747,0.746-2.259,0.98c-0.511,0.254-0.77,0.413-0.77,0.413s0.3-0.023,0.864-0.065
				c0.556-0.046,1.381-0.071,2.41-0.114c0.649-0.016,1.382-0.027,2.19-0.027c1.768,0,3.893,0.054,6.258,0.231
				c1.723,0.108,3.574,0.331,5.515,0.587c1.908,0.278,3.897,0.627,5.934,1.07c0.59-0.315,1.191-0.63,1.81-0.934
				c0.382-0.17,0.766-0.347,1.153-0.523c0.725-0.336,1.478-0.681,2.255-0.989c0.007-0.003,0.011-0.006,0.018-0.006
				c0.099-0.04,0.196-0.079,0.296-0.114c0.107-0.041,0.21-0.08,0.317-0.12c0.114-0.044,0.231-0.087,0.342-0.13
				c0.574-0.22,1.16-0.438,1.747-0.642c0.19-0.065,0.38-0.132,0.57-0.194c0.079-0.023,0.155-0.054,0.234-0.078
				c0.111-0.036,0.229-0.075,0.342-0.113c0.007-0.006,0.014-0.013,0.018-0.02C168.792,15.804,168.678,15.774,168.563,15.743"/>
			<path style="fill:#80CDC6;" d="M201.815,40.508c-0.532-0.919-1.274-1.958-2.139-3.155c-0.434-0.593-0.881-1.243-1.409-1.876
				c-0.532-0.636-1.091-1.307-1.675-2.002c-0.573-0.708-1.244-1.382-1.92-2.096c-0.69-0.704-1.378-1.457-2.162-2.154
				c-0.771-0.711-1.575-1.434-2.407-2.159c-0.854-0.703-1.75-1.389-2.656-2.105c-0.922-0.686-1.899-1.336-2.878-2.012
				c-0.993-0.653-2.033-1.264-3.077-1.885c-0.421-0.227-0.849-0.458-1.274-0.687c-1.008,0.229-2.023,0.48-2.954,0.71
				c-0.376,0.111-0.759,0.219-1.142,0.321c-0.018,0.008-0.038,0.013-0.055,0.018c-0.087,0.024-0.176,0.051-0.265,0.074
				c-0.108,0.029-0.215,0.059-0.322,0.09c-0.456,0.128-0.911,0.258-1.368,0.409l-1.571,0.496c-0.564,0.204-1.067,0.385-1.548,0.549
				c0.502,0.199,1.002,0.406,1.507,0.601c1.046,0.404,2.065,0.885,3.097,1.321c0.749,0.358,1.493,0.713,2.236,1.07
				c0.151,0.073,0.303,0.146,0.456,0.219c0.109,0.052,0.221,0.105,0.331,0.159c0.041,0.02,0.083,0.041,0.124,0.066
				c0.942,0.497,1.875,0.991,2.797,1.478c0.949,0.547,1.889,1.084,2.812,1.613c0.908,0.559,1.789,1.129,2.679,1.654
				c0.864,0.57,1.706,1.128,2.525,1.674c0.849,0.517,1.596,1.123,2.369,1.651c0.77,0.533,1.517,1.045,2.2,1.584
				c1.396,1.048,2.703,1.994,3.814,2.9c1.125,0.886,2.144,1.641,2.936,2.312c1.619,1.307,2.603,2.03,2.603,2.03
				S202.911,42.315,201.815,40.508"/>
			<path style="fill:#80CDC6;" d="M202.713,17.605c-0.512-0.236-1.264-0.623-2.259-0.982c-0.994-0.373-2.217-0.812-3.653-1.184
				c-1.434-0.39-3.081-0.736-4.897-1.003c-1.817-0.285-3.807-0.43-5.923-0.496c-0.276-0.001-0.55-0.004-0.829-0.004
				c-1.868,0-3.827,0.087-5.829,0.322c-0.526,0.059-1.054,0.129-1.586,0.204c-0.165,0.024-0.33,0.052-0.5,0.077
				c-0.166,0.026-0.332,0.054-0.499,0.082c-1.475,0.237-2.966,0.536-4.452,0.926c-0.076,0.022-0.155,0.044-0.235,0.065
				c-0.113,0.029-0.228,0.06-0.341,0.087c-0.114,0.032-0.227,0.062-0.342,0.091c-0.061,0.016-0.127,0.034-0.189,0.051
				c-0.196,0.052-0.39,0.102-0.584,0.152c-0.028,0.008-0.055,0.015-0.083,0.022c-0.151,0.046-0.304,0.099-0.456,0.145
				c-0.436,0.135-0.87,0.271-1.306,0.417c-0.207,0.062-0.412,0.134-0.615,0.201c-0.194,0.064-0.383,0.132-0.574,0.2
				c-0.189,0.067-0.382,0.137-0.573,0.21c-0.304,0.113-0.608,0.231-0.912,0.349c-0.107,0.038-0.211,0.077-0.317,0.118
				c-0.104,0.039-0.211,0.078-0.315,0.119c-0.061,0.022-0.12,0.046-0.182,0.068c-1.154,0.458-2.266,1.008-3.391,1.506
				c-0.377,0.187-0.743,0.382-1.112,0.574c-0.145,0.076-0.293,0.149-0.436,0.223c-0.144,0.078-0.286,0.152-0.429,0.229
				c-0.428,0.23-0.852,0.46-1.274,0.688c-1.047,0.622-2.087,1.232-3.078,1.884c-0.977,0.678-1.953,1.327-2.88,2.012
				c-0.902,0.717-1.8,1.403-2.656,2.106c-0.832,0.725-1.633,1.447-2.408,2.158c-0.783,0.697-1.471,1.451-2.161,2.155
				c-0.677,0.714-1.345,1.387-1.92,2.095c-0.584,0.697-1.14,1.368-1.671,2.003c-0.529,0.633-0.978,1.283-1.414,1.875
				c-0.863,1.198-1.606,2.237-2.134,3.156c-1.099,1.807-1.668,2.867-1.668,2.867s0.984-0.724,2.604-2.029
				c0.794-0.671,1.809-1.427,2.939-2.313c1.105-0.904,2.414-1.851,3.81-2.899c0.683-0.54,1.433-1.051,2.2-1.585
				c0.776-0.528,1.523-1.133,2.369-1.65c0.823-0.546,1.664-1.105,2.524-1.674c0.891-0.525,1.772-1.096,2.681-1.656
				c0.924-0.528,1.861-1.064,2.81-1.612c0.963-0.507,1.937-1.022,2.919-1.54c0.003-0.002,0.003-0.003,0.003-0.003
				c0.151-0.072,0.304-0.146,0.456-0.219c0.153-0.071,0.307-0.145,0.46-0.22c0.701-0.336,1.403-0.671,2.108-1.01
				c1.032-0.436,2.052-0.916,3.097-1.32c0.508-0.195,1.005-0.402,1.51-0.602c0.048-0.019,0.096-0.038,0.145-0.056
				c0.1-0.039,0.2-0.08,0.301-0.116c0.009-0.006,0,0,0.013-0.006c0.1-0.038,0.197-0.075,0.296-0.111
				c0.059-0.024,0.121-0.046,0.18-0.067c0.165-0.059,0.331-0.117,0.497-0.171c0.066-0.021,0.135-0.048,0.204-0.07
				c0.1-0.034,0.196-0.071,0.297-0.105c0.176-0.062,0.349-0.124,0.525-0.186c0.248-0.089,0.504-0.178,0.756-0.269
				c0.532-0.168,1.06-0.333,1.589-0.5c0.401-0.13,0.805-0.243,1.209-0.359c0.107-0.028,0.211-0.064,0.318-0.095
				c0.107-0.03,0.214-0.062,0.324-0.09c0.435-0.121,0.877-0.241,1.308-0.371c0.765-0.188,1.517-0.367,2.274-0.546
				c0.159-0.037,0.32-0.079,0.476-0.115c0.128-0.028,0.256-0.062,0.385-0.092c0.032-0.006,0.062-0.014,0.097-0.019
				c2.034-0.445,4.023-0.793,5.933-1.07c1.937-0.256,3.792-0.479,5.515-0.587c2.366-0.177,4.489-0.23,6.259-0.23
				c0.804,0,1.537,0.01,2.186,0.025c1.032,0.043,1.854,0.068,2.414,0.115c0.56,0.041,0.86,0.065,0.86,0.065
				S203.225,17.855,202.713,17.605"/>
			<path style="fill:#80CDC6;" d="M165.37,76.671h9.241v4.674h-9.241V76.671z M174.614,64.472h-0.003v9.196h-9.241v-9.196
				L123.88,39.066c0,0.646,0.307,1.253,0.825,1.639l35.283,26.027v16.666c0,3.655,1.974,7.093,5.241,8.734
				c0.024,0.015,0.049,0.025,0.073,0.037l0.066,0.037v-7.857h9.241v7.857l0.065-0.037c0.025-0.012,0.049-0.022,0.074-0.037
				c3.265-1.641,5.241-5.079,5.241-8.734V66.732l35.281-26.027c0.52-0.385,0.827-0.993,0.827-1.639L174.614,64.472z"/>
		</g>
	</g>
</g>
</svg>
