<?xml version="1.0" encoding="utf-8"?>
<!-- Generator: Adobe Illustrator 22.1.0, SVG Export Plug-In . SVG Version: 6.00 Build 0)  -->
<svg version="1.1" id="Layer_1" xmlns="http://www.w3.org/2000/svg" xmlns:xlink="http://www.w3.org/1999/xlink" x="0px" y="0px"
	 width="189.287px" height="188.457px" viewBox="0 0 189.287 188.457" style="enable-background:new 0 0 189.287 188.457;"
	 xml:space="preserve">
<style type="text/css">
	.st0{fill:#006C35;}
	.st1{fill:#FFFFFF;}
	.st2{fill:#2CADE3;}
	.st3{fill:none;stroke:#231F20;}
	.st4{fill:none;stroke:#FFFFFF;stroke-width:2;}
</style>
<g id="XMLID_1_">
	<g>
		<path class="st0" d="M153.797,146.158c1.957-1.984,3.833-4.094,5.623-6.328c-5.781-4.627-11.562-9.257-17.341-13.89
			c-0.248,0.098-0.497,0.19-0.746,0.281c-0.124,0.199-0.34,1.342-0.812,3.445c-0.48,2.103-0.768,3.26-0.686,3.476
			c0.363-0.102,1.633,0.861,3.84,2.888c1.577,1.424,3.633,3.434,6.132,6.056C152.087,144.406,153.423,145.769,153.797,146.158z
			 M94.884,2.706c50.472,0,91.385,40.917,91.385,91.385c0,50.472-40.913,91.384-91.385,91.384
			c-50.473,0-91.385-40.912-91.385-91.384C3.499,43.623,44.41,2.706,94.884,2.706z M148.747,150.868
			c-4.716-5.542-9.431-11.079-14.141-16.622c-0.169-0.055-0.329-0.113-0.493-0.169c-0.13,0.05-0.259,0.102-0.389,0.152
			c-0.082,0.255-0.476,1.309-1.341,3.124c-0.628,1.256-1.093,2.255-1.353,3.008c0.033,0.086,0.066,0.172,0.1,0.264
			c0.047,0.071,0.205,0.141,0.463,0.195c0.264,0.059,0.422,0.119,0.47,0.194c2.611,3.78,5.223,7.566,7.836,11.346
			c-0.632,0.437-1.265,0.859-1.909,1.276c-0.502,0.324-1.01,0.643-1.519,0.958c-1.525,0.941-3.083,1.821-4.66,2.644
			c-0.991-0.937-2.352-1.779-4.029-2.601c-2.261-1.173-4.018-1.612-5.429-1.238c-0.221,0.19-0.443,0.374-0.664,0.556
			c-0.946,2.261-1.699,4.035-2.109,5.333c0.075,0.037,0.967,0.394,2.773,0.969c1.801,0.567,2.969,1.373,3.423,2.513
			c0.66,1.634,0.102,3.299-1.811,4.894c-1.432,1.164-3.959,2.499-7.652,3.704c-0.037,0.097-0.076,0.201-0.114,0.303
			c1.298,0.487,3.591,0.336,6.77-0.686c2.994-0.967,5.634-2.467,7.804-4.374c2.47-2.153,3.34-3.997,2.838-5.344
			c0.048-0.097,0.102-0.188,0.151-0.281c1.359-0.708,2.698-1.454,4.018-2.254c0.006,0,0.006,0.004,0.006,0.004
			c0.26-0.151,0.513-0.309,0.768-0.47c0.065-0.032,0.129-0.071,0.19-0.113c0.519-0.314,1.032-0.638,1.541-0.973
			C143.209,155.286,146.038,153.183,148.747,150.868z M155.765,75.17c0-34.634-28.08-62.709-62.714-62.709
			c-34.635,0-62.71,28.075-62.71,62.709c0,34.634,28.075,62.721,62.71,62.721C127.685,137.891,155.765,109.804,155.765,75.17z
			 M113.982,173.752c0.67-0.556,0.94-1.098,0.826-1.627c-0.113-0.498-0.594-0.839-1.426-1.049c-0.837-0.206-1.748-0.223-2.741-0.05
			c-0.996,0.169-1.839,0.493-2.553,0.991c-0.714,0.486-1.05,0.977-0.984,1.486c0.069,0.535,0.518,0.946,1.367,1.223
			c0.844,0.274,1.802,0.324,2.839,0.144C112.415,174.682,113.306,174.297,113.982,173.752z M111.039,168.766
			c-0.714-3.871-1.427-7.743-2.141-11.609c-0.037-0.205-0.297-0.266-0.779-0.184c-0.296,0.048-1.319,0.785-3.228,2.104
			c-1.919,1.313-2.94,2.001-2.925,2.183c0.006,0.086,0.119,0.205,0.34,0.357c0.217,0.147,0.336,0.266,0.342,0.351
			c0.102,1.207,0.205,2.417,0.313,3.622c-1.093,0.093-2.178,0.163-3.271,0.208c-0.546,0.021-1.099,0.042-1.649,0.053
			c-1.882,0.039-3.764,0.011-5.64-0.086c0.313-5.991,0.627-11.982,0.941-17.975c-0.201-0.145-0.401-0.292-0.6-0.437
			c-0.21,0.015-1.168,0.513-3.001,1.384c-1.844,0.861-2.882,1.324-3.001,1.521c0.276,0.227,0.233,1.821-0.114,4.796
			c-0.216,2.114-0.605,4.965-1.184,8.537c-0.551,3.202-0.887,5.072-0.989,5.615c-0.006,0-0.011,0-0.017,0
			c-0.032,0.21-0.032,0.221,0.017,0c4.478,0.664,9.003,0.951,13.518,0.863v0.006c0.06,0,0.119,0,0.179-0.006
			c0.573-0.011,1.146-0.026,1.719-0.053C103.611,169.853,107.348,169.442,111.039,168.766z M105.076,175.13
			c0.697-0.459,1.006-0.963,0.946-1.497c-0.06-0.509-0.471-0.908-1.222-1.227c-0.751-0.314-1.649-0.427-2.715-0.357
			c-0.881,0.06-1.714,0.292-2.503,0.697c-0.79,0.4-1.184,0.816-1.173,1.27c0,0.206,0.037,0.416,0.102,0.623
			c0.069,0.356,0.519,0.686,1.367,0.967c0.844,0.282,1.671,0.396,2.477,0.34C103.471,175.872,104.379,175.59,105.076,175.13z
			 M80.764,162.752c0.309-1.464-0.314-2.903-1.725-4.378c-1.422-1.483-3.245-2.564-5.564-3.369
			c-5.207-1.807-10.236-4.251-14.968-7.332c0.622-0.952,1.238-1.91,1.86-2.861c-0.174-0.184-0.34-0.368-0.514-0.556
			c-0.097-0.033-1.162-0.158-3.238-0.542c-2.077-0.393-3.326-0.724-3.715-0.805c-0.157,0.066-0.314,0.13-0.465,0.201
			c0.054,0.589,0.081,0.898,0.06,0.919c-1.52,1.898-3.045,3.797-4.575,5.694c-0.027-0.053-0.06-0.113-0.087-0.166
			c-0.032,0.145-0.071,0.285-0.113,0.421c-0.405,0.509-0.816,1.012-1.222,1.519c-0.731,0.454-1.671,0.612-2.834,0.433
			c-1.79-0.264-3.683-1.287-5.543-3.12c-1.314-1.298-2.309-2.845-2.946-4.591c-0.633-1.746-0.573-2.908,0.092-3.46
			c0.865-0.735,1.054-1.411,0.578-2.049c-0.14-0.05-0.276-0.097-0.411-0.147c-0.243,0.082-0.487,0.158-0.73,0.232
			c-1.449,1.151-1.877,3.141-1.071,5.954c0.812,2.802,2.687,5.688,5.629,8.345c2.266,2.037,4.754,3.433,7.322,4.173
			c2.569,0.736,4.456,0.578,5.656-0.275c0-0.006-0.006-0.006-0.01-0.011c8.457,5.537,17.747,9.322,27.345,11.35
			C79.97,166.474,80.364,164.613,80.764,162.752z M72.199,149.884c0.455-1.147-0.244-2.06-2.033-2.867
			c-1.714-0.783-2.834-0.67-3.413,0.45c-0.232,0.454-0.189,0.973,0.147,1.557c0.33,0.578,0.903,1.06,1.698,1.428
			c0.8,0.363,1.557,0.482,2.26,0.368C71.556,150.701,72.005,150.388,72.199,149.884z"/>
		<path class="st1" d="M142.079,125.94c5.78,4.634,11.56,9.264,17.341,13.89c-1.79,2.233-3.667,4.343-5.623,6.328
			c-0.374-0.389-1.71-1.752-3.99-4.072c-2.499-2.622-4.555-4.632-6.132-6.056c-2.207-2.027-3.477-2.99-3.84-2.888
			c-0.082-0.216,0.206-1.373,0.686-3.476c0.472-2.103,0.688-3.246,0.812-3.445C141.582,126.13,141.831,126.038,142.079,125.94z"/>
		<path class="st2" d="M151.661,75.17c0,9.03-2.045,17.574-5.684,25.21l-4.266-19.267h1.623l-2.164-6.667h-7.932l-1.8,6.667h1.8
			l-1.573,10.55l-17.321-10.658l-3.816-14.854l1.443-2.341l-4.689-18.926l-2.341,4.417l-1.984-5.05l-2.882,3.698l-2.525-4.688
			l-3.061,5.229l-2.704-4.688l-2.888,4.234l-3.331-4.055l-2.617,4.689l-2.612-2.974l-4.596,18.115l1.622,2.341l-3.915,14.806
			L56.766,93.02l-3.303-11.907h1.909l-2.163-6.667h-7.927l-1.806,6.667h2.163l-4.71,20.883c-4.142-8.04-6.483-17.163-6.483-26.826
			c0-32.368,26.236-58.605,58.605-58.605C125.418,16.565,151.661,42.801,151.661,75.17z"/>
		<path class="st1" d="M134.606,134.246c4.71,5.543,9.425,11.08,14.141,16.622c-2.709,2.315-5.537,4.418-8.462,6.311
			c-0.764-1.179-1.525-2.358-2.294-3.542c0.645-0.417,1.277-0.838,1.909-1.276c-2.612-3.78-5.225-7.566-7.836-11.346
			c-0.048-0.075-0.206-0.134-0.47-0.194c-0.259-0.054-0.416-0.125-0.463-0.195c-0.033-0.093-0.066-0.179-0.1-0.264
			c0.26-0.753,0.725-1.752,1.353-3.008c0.865-1.815,1.259-2.87,1.341-3.124c0.13-0.05,0.259-0.102,0.389-0.152
			C134.277,134.133,134.437,134.191,134.606,134.246z"/>
		<path class="st1" d="M141.711,81.113l4.266,19.267c-2.07,4.342-4.655,8.381-7.678,12.052l-1.817-17.8l-4.818-2.969l1.573-10.55
			H141.711z"/>
		<polygon class="st1" points="141.17,74.445 143.334,81.113 141.711,81.113 133.237,81.113 131.437,81.113 133.237,74.445 		"/>
		<path class="st1" d="M137.99,153.637c0.769,1.184,1.53,2.363,2.294,3.542c-0.515,0.329-1.028,0.659-1.541,0.973
			c-0.061,0.043-0.125,0.082-0.19,0.113c-0.259,0.162-0.513,0.32-0.773,0.466c-0.714-1.207-1.433-2.413-2.158-3.62
			c0.288-0.166,0.569-0.34,0.85-0.517C136.98,154.286,137.488,153.966,137.99,153.637z"/>
		<path class="st1" d="M138.743,158.152c0.513-0.314,1.027-0.643,1.541-0.973C139.775,157.514,139.262,157.837,138.743,158.152z"/>
		<path class="st1" d="M138.553,158.265c-0.255,0.162-0.508,0.32-0.768,0.47c0,0,0-0.004-0.006-0.004
			C138.04,158.585,138.295,158.427,138.553,158.265z"/>
		<path class="st1" d="M93.051,12.461c34.634,0,62.714,28.075,62.714,62.709c0,34.634-28.08,62.721-62.714,62.721
			c-34.635,0-62.71-28.087-62.71-62.721C30.341,40.536,58.416,12.461,93.051,12.461z M145.977,100.38
			c3.639-7.636,5.684-16.18,5.684-25.21c0-32.368-26.242-58.605-58.61-58.605c-32.369,0-58.605,26.236-58.605,58.605
			c0,9.663,2.341,18.786,6.483,26.826c2.671,5.18,6.094,9.912,10.117,14.043c3.239,3.33,6.867,6.267,10.809,8.76
			c9.036,5.684,19.732,8.988,31.196,8.988c11.96,0,23.078-3.592,32.346-9.734c4.857-3.217,9.204-7.138,12.902-11.621
			C141.322,108.761,143.907,104.722,145.977,100.38z"/>
		<path class="st1" d="M136.482,94.632l1.817,17.8c-3.698,4.483-8.046,8.404-12.902,11.621l-11.053-43.048l17.321,10.658
			L136.482,94.632z"/>
		<path class="st1" d="M136.471,154.594c0.509-0.314,1.017-0.634,1.519-0.958C137.488,153.966,136.98,154.286,136.471,154.594z"/>
		<path class="st1" d="M135.621,155.112c0.725,1.207,1.444,2.413,2.158,3.62c-1.32,0.8-2.659,1.546-4.018,2.254
			c-0.048,0.093-0.102,0.184-0.151,0.281c0.502,1.346-0.368,3.191-2.838,5.344c-2.169,1.907-4.81,3.407-7.804,4.374
			c-3.18,1.023-5.472,1.173-6.77,0.686c0.037-0.102,0.076-0.206,0.114-0.303c3.693-1.205,6.219-2.54,7.652-3.704
			c1.913-1.595,2.471-3.26,1.811-4.894c-0.454-1.14-1.622-1.945-3.423-2.513c-1.806-0.574-2.698-0.931-2.773-0.969
			c0.41-1.298,1.162-3.072,2.109-5.333c0.221-0.183,0.443-0.367,0.664-0.556c1.411-0.374,3.169,0.065,5.429,1.238
			c1.677,0.822,3.038,1.665,4.029,2.601c1.577-0.823,3.135-1.703,4.66-2.644C136.19,154.771,135.909,154.946,135.621,155.112z"/>
		<path class="st1" d="M114.344,81.005l11.053,43.048c-9.268,6.142-20.385,9.734-32.346,9.734c-11.464,0-22.16-3.304-31.196-8.988
			l11.594-43.842l3.915-14.806l-1.622-2.341c4.153-0.697,8.311-1.146,12.464-1.363c4.126-0.221,8.252-0.2,12.373,0.06
			c3.801,0.227,7.598,0.665,11.393,1.303l-1.443,2.341L114.344,81.005z M95.5,107.069c5.078-3.607,13.005-4.191,20.142-2.438
			c-7.164-2.991-15.929-2.456-21.483,1.248c-2.634-1.471-5.619-2.709-9.057-3.072c-4.256-0.459-8.657,0.091-12.626,1.714
			c7.154-1.714,15.076-1.097,20.131,2.542c-1.335,0.974-2.623,1.984-3.861,3.011c-0.405-0.415-0.443-0.999-0.946-1.4
			c-0.405-0.259-0.794-0.378-1.287-0.476c-0.87-0.069-1.595,0.379-1.708,1.054c-0.033,0.52,0.394,0.991,0.973,1.153
			c0.573,0.087,1.108-0.184,1.562-0.367c0.27-0.104,0.589,0.387,0.422,0.62c-0.33,0.542-1.038,0.894-1.741,1.19
			c-0.509-0.459-1.352-0.517-1.952-0.14c-0.595,0.439-0.681,1.125-0.254,1.579c0.216,0.271,0.589,0.368,0.951,0.401
			c1.703-0.061,3.044-0.985,4.271-1.867c0.596,0.697,1.515,1.157,2.499,1.283c0.805,0.042,1.784-0.26,1.963-0.991
			c0.087-0.515-0.275-1.032-0.833-1.238c-0.465-0.145-0.925-0.06-1.379,0.109c-0.454,0.16-0.244,0.816-0.611,0.821
			c-0.27,0.017-0.833-0.253-0.659-0.475c1.032-1.379,2.606-2.158,4.034-3.18c1.427,1.032,3.18,1.826,4.013,3.265
			c0.086,0.086-0.39,0.426-0.661,0.406c-0.361,0.065-0.075-0.292-0.248-0.519c-0.173-0.303-0.536-0.385-0.904-0.471
			c-0.731-0.178-1.475,0.255-1.666,0.839c-0.091,0.291-0.006,0.59,0.174,0.811c1.232,1.324,3.379,0.329,4.281-0.639
			c1.315,0.974,2.975,2.082,4.732,1.725c0.649-0.134,1.028-0.821,0.649-1.389c-0.454-0.735-1.746-0.892-2.362-0.286
			c-0.703-0.298-1.406-0.654-1.731-1.196c-0.167-0.238,0.151-0.725,0.335-0.632c0.973,0.59,2.185,0.513,2.575-0.331
			c0.259-0.562-0.238-1.216-0.985-1.438c-0.659-0.145-1.444,0.011-1.952,0.405c-0.502,0.4-0.547,0.989-0.951,1.406
			C98.116,109.058,96.829,108.047,95.5,107.069z M98.982,89.91c0.27-0.952,0.006-1.903-0.524-2.779
			c-0.53-0.812-1.39-1.038-1.986-1.622c0.13-0.152,0.331,0.07,0.465-0.071c0.066,0.071,0.066,0.071,0.13,0.14
			c0-0.14,0.071-0.221,0.136-0.14c0.13,0.14,0.199,0,0.329,0c0.072,0.071,0.136,0.14,0.201,0.222c0-0.082,0.065-0.151,0.065-0.151
			c0.069,0.07,0.266,0.075,0.266,0.292c0.069-0.071,0.069-0.071,0.134-0.14c0.065,0.07,0.13,0.14,0.13,0.298
			c0-0.082,0-0.157,0.071-0.157c0.13,0.227,0.329,0.368,0.329,0.67c0-0.081,0.065-0.152,0.065-0.152
			c0.134,0.152,0,0.363,0.129,0.519c0.072-0.448,0.006-0.881-0.123-1.254c-0.201-0.286-0.53-0.589-0.796-0.659
			c-0.729-0.298-1.66-0.449-2.46-0.076c-0.065,0,0.201-0.443,0.335-0.594c0.066,0,0.201-0.071,0.266,0.081
			c0.065-0.071-0.136-0.227,0-0.292c0.136,0,0.266,0.07,0.401,0.14c0-0.071,0-0.14-0.066-0.14c0.13-0.151,0.266,0,0.396,0.07
			c0-0.07-0.066-0.07-0.066-0.14c0-0.081,0.066-0.151,0.136-0.081c0.055,0.064,0.212,0.081,0.255,0.216
			c-0.011-0.087-0.028-0.216,0.076-0.216c0.201,0.081,0.264,0.373,0.394,0.513c0.071-1.016-1.124-1.243-1.854-1.103
			c-0.465,0.151-0.866,0.443-1.065,0.952c-0.13-0.298-0.195-0.59-0.266-0.958c0,0.076,0,0.157-0.064,0.227
			c-0.13-0.292-0.066-0.659-0.195-0.951c-0.136,0.292-0.071,0.659-0.206,0.951c-0.064-0.081-0.064-0.151-0.064-0.227
			c-0.066,0.367-0.136,0.659-0.266,0.952c-0.201-0.362-0.401-0.73-0.794-0.881c-0.667-0.222-1.267-0.151-1.861,0.292
			c-0.271,0.14-0.336,0.432-0.271,0.73c0.135-0.146,0.2-0.438,0.401-0.508c0.102,0,0.086,0.136,0.075,0.216
			c0.038-0.146,0.2-0.151,0.259-0.216c0.065,0,0.129,0,0.129,0.071l-0.064,0.07c0.129,0.076,0.265-0.211,0.394,0.006l-0.064,0.071
			c0.135,0.081,0.334-0.211,0.464,0c-0.064,0.081-0.064,0.146-0.064,0.221c0.264-0.292,0.465,0.152,0.529,0.374
			c0,0.07-0.069,0.14-0.069,0.14c-0.796-0.443-1.59-0.222-2.32,0.065c-0.735,0.227-1.07,1.033-0.94,1.903
			c0.07-0.146,0.005-0.363,0.135-0.503c0,0,0.07,0.065,0.07,0.14c0-0.14,0.065-0.292,0.13-0.438l0.071,0.071
			c0-0.141,0.064-0.222,0.129-0.292c0.07,0,0.07,0.075,0.07,0.151c0-0.151,0.065-0.222,0.13-0.292c0.065,0.07,0.065,0.07,0.135,0.14
			c0-0.222,0.201-0.211,0.266-0.293c0,0,0.065,0.082,0.065,0.152c0.07-0.071,0.135-0.222,0.265-0.222c0.07,0,0.07,0.07,0.07,0.152
			c0.065-0.082,0.13-0.152,0.265-0.152c0.065,0,0.065,0.07,0.065,0.152c0.064-0.082,0.064-0.082,0.135-0.152
			c0.13,0.152,0.33-0.071,0.465,0.076c-0.335,0.443-0.865,0.508-1.265,0.876c-0.266,0.222-0.535,0.444-0.736,0.736
			c-0.2,0.292-0.329,0.584-0.464,0.876c-0.201,0.589-0.206,1.244-0.071,1.903c0.065-0.221-0.064-0.513,0.065-0.73
			c0.136,0.146,0,0.363,0.065,0.59c0.071-0.227,0.071-0.443,0.2-0.66c0.136,0.141,0,0.368,0.065,0.509
			c0.071-0.292,0.006-0.589,0.205-0.8c0.065,0,0,0.211,0.13,0.292c0-0.221-0.065-0.513,0.135-0.735c0,0,0.065,0.071,0.065,0.151
			c0-0.221-0.065-0.513,0.136-0.595c0.135,0.011,0.065,0.222,0.065,0.303c0.07-0.292,0.07-0.665,0.27-0.806
			c0.065-0.075,0.065,0.141,0.065,0.211c0.064-0.211,0.071-0.578,0.271-0.659c0.064,0.006,0.064,0.221,0.064,0.298
			c0.065-0.216,0.2-0.438,0.265-0.66c0.065,0.07,0.065,0.07,0.136,0.151c0.065-0.221,0.2-0.443,0.394-0.374
			c0.201,0.011,0.071,0.222,0,0.298c-0.465,0.508-0.93,1.027-1.2,1.611c-0.4,1.022-0.335,2.195,0.125,3.153
			c-0.065-0.222-0.195-0.585,0.006-0.665c0.129-0.071,0,0.221,0.129,0.303c0-0.443,0-0.806,0.136-1.255
			c0.06,0.071,0.13,0.141,0.135,0.27c0-0.06,0.006-0.113,0.065-0.113c0.136,0.065,0.065,0.211,0.065,0.357
			c0.135-0.357,0.151-0.67-0.065-1.027c-0.13-0.211,0.006-0.363,0.071-0.584c0.065,0.081,0.129,0.146,0.129,0.292
			c0.071-0.292,0.006-0.66,0.136-0.952c0.135,0.081,0.07,0.222,0.07,0.292c0.131-0.211-0.07-0.502,0.131-0.654
			c0.136,0,0,0.221,0.136,0.292c0-0.222-0.066-0.514,0.134-0.654c0.065,0,0.065,0.221,0.065,0.292c0-0.292,0.134-0.584,0.335-0.735
			c0.065,0,0.13,0,0.13,0.071c-0.13,0.081,0,0.221-0.13,0.302c0.13,0,0.194,0.071,0.266,0.14c-0.271,0.222-0.401,0.444-0.537,0.735
			c0.066-0.151,0.266-0.216,0.401-0.076c-0.331,0.152-0.66,0.357-0.6,0.789c0.006-0.14,0.136-0.281,0.266-0.346
			c0.064,0,0.199,0,0.199,0.07c-0.266,0.293-0.535,0.585-0.47,1.028c0.069-0.151,0.069-0.373,0.271-0.373
			c0.064,0,0.13,0.082,0.064,0.151c-0.335,0.363-0.335,0.881-0.27,1.325c0-0.152-0.065-0.373,0.065-0.302
			c0.136,0,0.069,0.221,0.065,0.373l0.071-0.071c0.13,0.211-0.071,0.362-0.006,0.579c0.069,0.221,0.069,0.373,0.136,0.594
			c0.064-0.221-0.066-0.513,0.064-0.741c0.136,0.298,0.136,0.66,0.13,1.033c0.006-0.081,0.006-0.151,0.069-0.151
			c0.13,0.071,0,0.292,0.13,0.368c-0.064-0.509,0.136-1.022,0.141-1.541c-0.069,0-0.136,0-0.136-0.065
			c0-0.156-0.064-0.448,0.072-0.448c0.129-0.071-0.006,0.292,0.129,0.373c-0.065-0.221,0-0.443,0.071-0.584
			c0.064,0,0.064-0.303,0.194-0.081c0,0.081,0,0.152-0.064,0.152c0.064,0.14,0.266,0.221,0.329,0.07c0-0.07-0.064-0.221,0.071-0.292
			c0.125,3.012,0.119,4.483-0.021,7.495c0,0.14-0.072,0.286-0.136,0.433c-0.071,0.659,0.194,1.173-0.141,1.757
			c-0.065,0.227,0.071,0.448,0.065,0.659c0.065,0.672-0.4,1.173-0.665,1.757c0.861,0.006,1.79,0.006,2.655,0.017
			c-0.331-0.518-0.53-1.032-0.724-1.547c-0.066-0.291,0.199-0.588,0.134-0.88c-0.134-0.222-0.201-0.433-0.201-0.654
			c-0.064-0.152,0-0.368,0.072-0.52c0.064-0.362-0.13-0.724-0.13-1.097c-0.125-2.936-0.191-4.488,0.021-7.419
			c0.13,0.152-0.006,0.449,0.264,0.368c0.202-0.071,0-0.368,0.13-0.292c0.201,0.081,0.201,0.373,0.201,0.665
			c0.136-0.071,0-0.443,0.136-0.373c0.129,0.01,0.065,0.302,0.065,0.443c0,0.071-0.072,0.071-0.136,0.071
			c0,0.514,0.194,1.033,0.13,1.547c0.13-0.071,0-0.292,0.136-0.374c0.064,0,0.064,0.082,0.064,0.151c0-0.362,0-0.735,0.136-1.027
			c0.13,0.217,0,0.513,0.065,0.735c0.065-0.222,0.065-0.363,0.134-0.589c0.066-0.221-0.134-0.362,0-0.584l0.066,0.07
			c0-0.14-0.066-0.362,0.069-0.362c0.13-0.071,0.065,0.151,0.065,0.292c0.136-0.514-0.065-0.952-0.264-1.395
			c0,0,0.069-0.07,0.136-0.07c0.134,0.07,0.199,0.221,0.199,0.362c0.065-0.432-0.199-0.724-0.465-1.027
			c0-0.07,0.136-0.07,0.199-0.07c0.136,0.07,0.266,0.221,0.266,0.373c0.069-0.449-0.266-0.665-0.595-0.811
			c0.136-0.152,0.329-0.071,0.4,0.07c0-0.221-0.199-0.292-0.199-0.513c-0.065-0.222-0.331-0.222-0.394-0.439
			c0-0.075,0.064-0.075,0.13-0.075c0.064,0,0.064,0.081,0.064,0.151c0.071,0,0.136,0,0.136,0c0.065-0.071,0-0.297,0.065-0.297
			c0.179,0.065,0.248,0.362,0.264,0.578c0.006-0.091,0.017-0.21,0.071-0.21c0.195,0.152,0.129,0.443,0.129,0.665
			c0.13-0.076,0.066-0.292,0.136-0.292c0.197,0.14-0.006,0.432,0.13,0.659c0-0.081-0.064-0.227,0.066-0.292
			c0.134,0.292,0.064,0.654,0.129,0.946c0-0.14,0.071-0.221,0.136-0.292c0.065,0.151,0.129,0.292,0.129,0.443
			c-0.129,0.368-0.264,0.8-0.136,1.173c0-0.151-0.064-0.292,0.072-0.373c0.058,0,0.064,0.065,0.064,0.129
			c0.006-0.135,0.071-0.205,0.136-0.27c0.13,0.443,0.13,0.811,0.125,1.244c0.136-0.071,0.006-0.368,0.136-0.293
			c0.199,0.082,0.065,0.443,0,0.665c0.465-1.033,0.601-2.271,0.141-3.304c-0.331-0.589-0.861-1.022-1.256-1.617
			c0-0.076,0-0.216,0.066-0.216c0.199,0.07,0.329,0.216,0.394,0.438c0.071-0.076,0.071-0.076,0.134-0.141
			c0.066,0.222,0.202,0.432,0.266,0.654c0-0.071,0-0.292,0.065-0.292c0.201,0.07,0.201,0.443,0.264,0.66
			c0-0.076,0-0.292,0.071-0.217c0.19,0.141,0.195,0.481,0.255,0.773c-0.006-0.092-0.043-0.265,0.076-0.265
			c0.194,0.081,0.13,0.373,0.13,0.595c0-0.082,0.064-0.152,0.064-0.152c0.201,0.222,0.136,0.52,0.13,0.731
			c0.136-0.071,0.071-0.287,0.136-0.287c0.199,0.217,0.13,0.509,0.199,0.812c0-0.152-0.069-0.374,0.066-0.514
			c0.134,0.211,0.129,0.433,0.199,0.654c0.065-0.221-0.065-0.443,0.065-0.584C99.051,89.403,98.917,89.695,98.982,89.91z"/>
		<path class="st1" d="M114.808,172.125c0.113,0.529-0.156,1.071-0.826,1.627c-0.677,0.545-1.568,0.93-2.672,1.118
			c-1.038,0.18-1.995,0.13-2.839-0.144c-0.85-0.277-1.298-0.688-1.367-1.223c-0.066-0.509,0.27-1,0.984-1.486
			c0.714-0.498,1.557-0.822,2.553-0.991c0.993-0.173,1.904-0.156,2.741,0.05C114.215,171.287,114.695,171.627,114.808,172.125z"/>
		<path class="st1" d="M107.281,44.884l4.689,18.926c-3.795-0.638-7.592-1.076-11.393-1.303l-2.845-8.971h-7.03l-2.498,8.911
			c-4.153,0.217-8.311,0.666-12.464,1.363l4.596-18.115l2.612,2.974l2.617-4.689l3.331,4.055l2.888-4.234l2.704,4.688l3.061-5.229
			l2.525,4.688l2.882-3.698l1.984,5.05L107.281,44.884z"/>
		<path class="st1" d="M108.899,157.157c0.714,3.866,1.427,7.737,2.141,11.609c-3.692,0.677-7.429,1.088-11.172,1.251
			c-0.058-1.407-0.119-2.813-0.177-4.217c1.093-0.044,2.178-0.115,3.271-0.208c-0.108-1.205-0.21-2.416-0.313-3.622
			c-0.006-0.086-0.125-0.205-0.342-0.351c-0.221-0.152-0.335-0.271-0.34-0.357c-0.015-0.183,1.006-0.87,2.925-2.183
			c1.91-1.32,2.932-2.056,3.228-2.104C108.601,156.891,108.862,156.952,108.899,157.157z"/>
		<path class="st0" d="M115.641,104.631c-7.137-1.753-15.064-1.169-20.142,2.438c1.33,0.978,2.617,1.99,3.851,3.038
			c0.404-0.416,0.448-1.006,0.951-1.406c0.508-0.394,1.294-0.551,1.952-0.405c0.747,0.221,1.244,0.876,0.985,1.438
			c-0.39,0.844-1.602,0.92-2.575,0.331c-0.184-0.093-0.502,0.394-0.335,0.632c0.325,0.541,1.028,0.898,1.731,1.196
			c0.616-0.606,1.908-0.448,2.362,0.286c0.379,0.569,0,1.255-0.649,1.389c-1.757,0.357-3.418-0.751-4.732-1.725
			c-0.902,0.969-3.05,1.963-4.281,0.639c-0.18-0.221-0.266-0.52-0.174-0.811c0.191-0.584,0.935-1.017,1.666-0.839
			c0.368,0.086,0.731,0.167,0.904,0.471c0.173,0.227-0.113,0.584,0.248,0.519c0.271,0.021,0.747-0.32,0.661-0.406
			c-0.833-1.439-2.586-2.233-4.013-3.265c-1.428,1.021-3.002,1.8-4.034,3.18c-0.174,0.221,0.389,0.491,0.659,0.475
			c0.367-0.004,0.157-0.66,0.611-0.821c0.454-0.169,0.914-0.255,1.379-0.109c0.558,0.206,0.92,0.724,0.833,1.238
			c-0.179,0.731-1.158,1.032-1.963,0.991c-0.984-0.126-1.903-0.585-2.499-1.283c-1.227,0.881-2.568,1.806-4.271,1.867
			c-0.362-0.033-0.735-0.13-0.951-0.401c-0.427-0.454-0.341-1.14,0.254-1.579c0.601-0.378,1.444-0.32,1.952,0.14
			c0.703-0.296,1.411-0.648,1.741-1.19c0.167-0.233-0.152-0.724-0.422-0.62c-0.454,0.183-0.989,0.454-1.562,0.367
			c-0.579-0.162-1.006-0.632-0.973-1.153c0.113-0.675,0.838-1.124,1.708-1.054c0.493,0.098,0.881,0.217,1.287,0.476
			c0.504,0.401,0.541,0.985,0.946,1.4c1.238-1.027,2.526-2.037,3.861-3.011c-5.056-3.639-12.977-4.256-20.131-2.542
			c3.969-1.623,8.37-2.174,12.626-1.714c3.438,0.362,6.424,1.601,9.057,3.072C99.713,102.175,108.477,101.639,115.641,104.631z"/>
		<path class="st1" d="M106.022,173.633c0.06,0.534-0.249,1.038-0.946,1.497s-1.605,0.742-2.72,0.816
			c-0.805,0.055-1.633-0.058-2.477-0.34c-0.848-0.281-1.298-0.612-1.367-0.967c-0.065-0.206-0.102-0.416-0.102-0.623
			c-0.011-0.454,0.383-0.87,1.173-1.27c0.789-0.406,1.622-0.638,2.503-0.697c1.065-0.071,1.963,0.043,2.715,0.357
			C105.552,172.725,105.963,173.124,106.022,173.633z"/>
		<path class="st1" d="M97.733,53.535l2.845,8.971c-4.121-0.259-8.247-0.281-12.373-0.06l2.498-8.911H97.733z M94.78,58.942v-2.071
			h-1.011v2.071H94.78z"/>
		<path class="st1" d="M99.691,165.799c0.058,1.404,0.119,2.81,0.177,4.217c-0.573,0.026-1.146,0.042-1.719,0.053
			c-0.06,0-0.119,0-0.179,0c-0.032-1.406-0.059-2.806-0.087-4.212c0.055,0,0.104,0,0.158-0.006
			C98.592,165.841,99.139,165.824,99.691,165.799z"/>
		<path class="st1" d="M98.041,165.852c0.551-0.011,1.103-0.032,1.649-0.053C99.139,165.824,98.592,165.841,98.041,165.852z"/>
		<path class="st0" d="M98.458,87.131c0.53,0.876,0.794,1.827,0.524,2.779c-0.065-0.216,0.069-0.508-0.065-0.73
			c-0.13,0.14,0,0.362-0.065,0.584c-0.071-0.221-0.065-0.443-0.199-0.654c-0.136,0.14-0.066,0.362-0.066,0.514
			c-0.069-0.303,0-0.595-0.199-0.812c-0.065,0,0,0.217-0.136,0.287c0.006-0.211,0.071-0.509-0.13-0.731c0,0-0.064,0.071-0.064,0.152
			c0-0.222,0.064-0.514-0.13-0.595c-0.119,0-0.082,0.173-0.076,0.265c-0.06-0.293-0.065-0.633-0.255-0.773
			c-0.071-0.075-0.071,0.141-0.071,0.217c-0.064-0.217-0.064-0.59-0.264-0.66c-0.065,0-0.065,0.221-0.065,0.292
			c-0.064-0.222-0.199-0.432-0.266-0.654c-0.064,0.065-0.064,0.065-0.134,0.141c-0.065-0.222-0.195-0.368-0.394-0.438
			c-0.066,0-0.066,0.14-0.066,0.216c0.396,0.595,0.926,1.027,1.256,1.617c0.459,1.033,0.324,2.271-0.141,3.304
			c0.065-0.222,0.199-0.584,0-0.665c-0.13-0.075,0,0.222-0.136,0.293c0.006-0.433,0.006-0.8-0.125-1.244
			c-0.065,0.065-0.13,0.135-0.136,0.27c0-0.064-0.006-0.129-0.064-0.129c-0.136,0.081-0.072,0.221-0.072,0.373
			c-0.129-0.373,0.007-0.805,0.136-1.173c0-0.152-0.064-0.292-0.129-0.443c-0.065,0.071-0.136,0.151-0.136,0.292
			c-0.065-0.292,0.006-0.654-0.129-0.946c-0.13,0.065-0.066,0.211-0.066,0.292c-0.136-0.227,0.066-0.519-0.13-0.659
			c-0.069,0-0.006,0.216-0.136,0.292c0-0.221,0.066-0.513-0.129-0.665c-0.054,0-0.065,0.119-0.071,0.21
			c-0.017-0.216-0.086-0.513-0.264-0.578c-0.065,0,0,0.227-0.065,0.297c0,0-0.065,0-0.136,0c0-0.071,0-0.151-0.064-0.151
			c-0.066,0-0.13,0-0.13,0.075c0.064,0.216,0.329,0.216,0.394,0.439c0,0.221,0.199,0.292,0.199,0.513
			c-0.071-0.14-0.264-0.221-0.4-0.07c0.329,0.146,0.664,0.362,0.595,0.811c0-0.151-0.13-0.303-0.266-0.373
			c-0.064,0-0.199,0-0.199,0.07c0.266,0.303,0.53,0.595,0.465,1.027c0-0.141-0.065-0.292-0.199-0.362
			c-0.066,0-0.136,0.07-0.136,0.07c0.199,0.443,0.4,0.881,0.264,1.395c0-0.141,0.065-0.363-0.065-0.292
			c-0.136,0-0.069,0.221-0.069,0.362l-0.066-0.07c-0.134,0.222,0.066,0.362,0,0.584c-0.069,0.227-0.069,0.367-0.134,0.589
			c-0.065-0.222,0.065-0.519-0.065-0.735c-0.136,0.292-0.136,0.665-0.136,1.027c0-0.07,0-0.151-0.064-0.151
			c-0.136,0.082-0.006,0.303-0.136,0.374c0.064-0.514-0.13-1.033-0.13-1.547c0.064,0,0.136,0,0.136-0.071
			c0-0.14,0.064-0.432-0.065-0.443c-0.136-0.071,0,0.302-0.136,0.373c0-0.292,0-0.584-0.201-0.665
			c-0.13-0.076,0.072,0.221-0.13,0.292c-0.27,0.081-0.134-0.216-0.264-0.368c-0.212,2.931-0.145,4.483-0.021,7.419
			c0,0.373,0.194,0.735,0.13,1.097c-0.072,0.151-0.136,0.368-0.072,0.52c0,0.221,0.066,0.432,0.201,0.654
			c0.065,0.292-0.201,0.589-0.134,0.88c0.194,0.515,0.393,1.029,0.724,1.547c-0.865-0.011-1.795-0.011-2.655-0.017
			c0.266-0.584,0.731-1.085,0.665-1.757c0.006-0.21-0.13-0.432-0.065-0.659c0.335-0.584,0.071-1.098,0.141-1.757
			c0.064-0.147,0.136-0.293,0.136-0.433c0.14-3.012,0.145-4.482,0.021-7.495c-0.134,0.071-0.071,0.222-0.071,0.292
			c-0.064,0.151-0.266,0.071-0.329-0.07c0.064,0,0.064-0.071,0.064-0.152c-0.13-0.222-0.13,0.081-0.194,0.081
			c-0.071,0.14-0.136,0.362-0.071,0.584c-0.134-0.081,0-0.443-0.129-0.373c-0.136,0-0.072,0.292-0.072,0.448
			c0,0.065,0.066,0.065,0.136,0.065c-0.006,0.52-0.205,1.033-0.141,1.541c-0.13-0.076,0-0.298-0.13-0.368
			c-0.064,0-0.064,0.071-0.069,0.151c0.006-0.373,0.006-0.735-0.13-1.033c-0.13,0.228,0,0.52-0.064,0.741
			c-0.066-0.221-0.066-0.373-0.136-0.594c-0.065-0.217,0.136-0.368,0.006-0.579l-0.071,0.071c0.004-0.152,0.071-0.373-0.065-0.373
			c-0.13-0.071-0.065,0.151-0.065,0.302c-0.065-0.443-0.065-0.962,0.27-1.325c0.066-0.07,0-0.151-0.064-0.151
			c-0.202,0-0.202,0.222-0.271,0.373c-0.065-0.443,0.205-0.735,0.47-1.028c0-0.07-0.136-0.07-0.199-0.07
			c-0.13,0.065-0.26,0.206-0.266,0.346c-0.06-0.432,0.27-0.638,0.6-0.789c-0.136-0.14-0.335-0.075-0.401,0.076
			c0.136-0.291,0.266-0.513,0.537-0.735c-0.072-0.07-0.136-0.14-0.266-0.14c0.13-0.081,0-0.221,0.13-0.302
			c0-0.071-0.065-0.071-0.13-0.071c-0.201,0.152-0.335,0.443-0.335,0.735c0-0.071,0-0.292-0.065-0.292
			c-0.201,0.14-0.134,0.432-0.134,0.654c-0.136-0.071,0-0.292-0.136-0.292c-0.201,0.151,0,0.443-0.131,0.654
			c0-0.07,0.065-0.211-0.07-0.292c-0.13,0.292-0.065,0.66-0.136,0.952c0-0.146-0.064-0.211-0.129-0.292
			c-0.065,0.221-0.201,0.373-0.071,0.584c0.216,0.357,0.2,0.67,0.065,1.027c0-0.146,0.071-0.292-0.065-0.357
			c-0.06,0-0.065,0.054-0.065,0.113c-0.005-0.129-0.076-0.2-0.135-0.27c-0.136,0.449-0.136,0.811-0.136,1.255
			c-0.129-0.082,0-0.374-0.129-0.303c-0.201,0.081-0.071,0.443-0.006,0.665c-0.459-0.958-0.524-2.131-0.125-3.153
			c0.271-0.584,0.735-1.103,1.2-1.611c0.071-0.076,0.201-0.287,0-0.298c-0.194-0.07-0.329,0.152-0.394,0.374
			c-0.071-0.082-0.071-0.082-0.136-0.151c-0.065,0.222-0.2,0.443-0.265,0.66c0-0.076,0-0.292-0.064-0.298
			c-0.2,0.081-0.206,0.448-0.271,0.659c0-0.07,0-0.286-0.065-0.211c-0.2,0.141-0.2,0.514-0.27,0.806c0-0.081,0.07-0.292-0.065-0.303
			c-0.201,0.082-0.136,0.374-0.136,0.595c0-0.081-0.065-0.151-0.065-0.151c-0.2,0.222-0.135,0.514-0.135,0.735
			c-0.13-0.081-0.065-0.292-0.13-0.292c-0.2,0.211-0.135,0.509-0.205,0.8c-0.065-0.14,0.071-0.367-0.065-0.509
			c-0.129,0.217-0.129,0.433-0.2,0.66c-0.065-0.227,0.071-0.443-0.065-0.59c-0.129,0.217,0,0.509-0.065,0.73
			c-0.135-0.659-0.129-1.314,0.071-1.903c0.135-0.292,0.264-0.584,0.464-0.876c0.201-0.292,0.47-0.514,0.736-0.736
			c0.4-0.367,0.93-0.432,1.265-0.876c-0.135-0.146-0.335,0.076-0.465-0.076c-0.071,0.07-0.071,0.07-0.135,0.152
			c0-0.082,0-0.152-0.065-0.152c-0.135,0-0.2,0.07-0.265,0.152c0-0.082,0-0.152-0.07-0.152c-0.13,0-0.195,0.152-0.265,0.222
			c0-0.071-0.065-0.152-0.065-0.152c-0.065,0.082-0.266,0.071-0.266,0.293c-0.07-0.071-0.07-0.071-0.135-0.14
			c-0.065,0.07-0.13,0.14-0.13,0.292c0-0.076,0-0.151-0.07-0.151c-0.065,0.07-0.129,0.151-0.129,0.292l-0.071-0.071
			c-0.065,0.146-0.13,0.298-0.13,0.438c0-0.075-0.07-0.14-0.07-0.14c-0.13,0.14-0.065,0.357-0.135,0.503
			c-0.13-0.87,0.205-1.676,0.94-1.903c0.731-0.287,1.525-0.509,2.32-0.065c0,0,0.069-0.071,0.069-0.14
			c-0.064-0.222-0.264-0.666-0.529-0.374c0-0.075,0-0.14,0.064-0.221c-0.13-0.211-0.329,0.081-0.464,0l0.064-0.071
			c-0.129-0.217-0.265,0.071-0.394-0.006l0.064-0.07c0-0.071-0.064-0.071-0.129-0.071c-0.06,0.065-0.221,0.071-0.259,0.216
			c0.011-0.081,0.027-0.216-0.075-0.216c-0.201,0.071-0.266,0.362-0.401,0.508c-0.065-0.297,0-0.589,0.271-0.73
			c0.594-0.443,1.194-0.514,1.861-0.292c0.393,0.152,0.594,0.519,0.794,0.881c0.13-0.293,0.199-0.585,0.266-0.952
			c0,0.076,0,0.146,0.064,0.227c0.136-0.292,0.071-0.659,0.206-0.951c0.129,0.292,0.065,0.659,0.195,0.951
			c0.064-0.07,0.064-0.151,0.064-0.227c0.071,0.367,0.136,0.659,0.266,0.958c0.199-0.509,0.601-0.8,1.065-0.952
			c0.731-0.141,1.925,0.086,1.854,1.103c-0.13-0.141-0.194-0.432-0.394-0.513c-0.104,0-0.087,0.129-0.076,0.216
			c-0.043-0.136-0.199-0.152-0.255-0.216c-0.069-0.071-0.136,0-0.136,0.081c0,0.071,0.066,0.071,0.066,0.14
			c-0.13-0.07-0.266-0.221-0.396-0.07c0.066,0,0.066,0.07,0.066,0.14c-0.136-0.071-0.266-0.14-0.401-0.14
			c-0.136,0.065,0.065,0.221,0,0.292c-0.065-0.152-0.199-0.081-0.266-0.081c-0.134,0.151-0.4,0.594-0.335,0.594
			c0.8-0.373,1.731-0.221,2.46,0.076c0.266,0.07,0.595,0.373,0.796,0.659c0.129,0.374,0.195,0.806,0.123,1.254
			c-0.129-0.156,0.006-0.367-0.129-0.519c0,0-0.065,0.071-0.065,0.152c0-0.302-0.199-0.443-0.329-0.67
			c-0.071,0-0.071,0.076-0.071,0.157c0-0.157-0.065-0.228-0.13-0.298c-0.065,0.07-0.065,0.07-0.134,0.14
			c0-0.216-0.197-0.222-0.266-0.292c0,0-0.065,0.07-0.065,0.151c-0.065-0.082-0.129-0.151-0.201-0.222c-0.13,0-0.199,0.14-0.329,0
			c-0.065-0.081-0.136,0-0.136,0.14c-0.064-0.07-0.064-0.07-0.13-0.14c-0.134,0.14-0.335-0.081-0.465,0.071
			C97.067,86.093,97.928,86.32,98.458,87.131z"/>
		<path class="st1" d="M98.149,170.069c-0.06,0.006-0.119,0.006-0.179,0.006v-0.006C98.03,170.069,98.09,170.069,98.149,170.069z"/>
		<path class="st1" d="M98.041,165.852c-0.054,0.006-0.102,0.006-0.158,0.006c0.028,1.406,0.055,2.806,0.087,4.212
			c-4.515,0.087-9.041-0.199-13.518-0.863c0.102-0.543,0.438-2.413,0.989-5.615c0.579-3.573,0.968-6.423,1.184-8.537
			c0.347-2.975,0.39-4.569,0.114-4.796c0.119-0.197,1.157-0.66,3.001-1.521c1.833-0.87,2.791-1.369,3.001-1.384
			c0.199,0.145,0.4,0.292,0.6,0.437c-0.314,5.993-0.628,11.984-0.941,17.975C94.278,165.863,96.16,165.89,98.041,165.852z"/>
		<path class="st1" d="M84.436,169.206c0.006,0,0.011,0,0.017,0C84.404,169.427,84.404,169.416,84.436,169.206z"/>
		<path class="st1" d="M79.04,158.374c1.411,1.475,2.033,2.914,1.725,4.378c-0.401,1.861-0.795,3.722-1.19,5.576
			c-9.598-2.028-18.888-5.813-27.345-11.35c-1.579-2.363-3.018-4.792-4.31-7.257c1.53-1.897,3.055-3.795,4.575-5.694
			c0.021-0.021-0.006-0.329-0.06-0.919c0.151-0.071,0.308-0.134,0.465-0.201c0.389,0.082,1.638,0.412,3.715,0.805
			c2.076,0.385,3.141,0.509,3.238,0.542c0.174,0.188,0.34,0.372,0.514,0.556c-0.622,0.952-1.238,1.909-1.86,2.861
			c4.731,3.081,9.76,5.525,14.968,7.332C75.795,155.81,77.617,156.891,79.04,158.374z M73.551,160.948
			c0.136-0.433-0.06-0.883-0.573-1.368c-0.509-0.487-1.136-0.859-1.882-1.13c-5.115-1.865-10.058-4.314-14.724-7.343
			c-0.552,0.854-1.103,1.709-1.66,2.564c5.786,3.758,11.978,6.65,18.385,8.689C73.248,161.889,73.399,161.418,73.551,160.948z"/>
		<path class="st0" d="M72.978,159.579c0.513,0.486,0.708,0.935,0.573,1.368c-0.151,0.471-0.302,0.941-0.454,1.411
			c-6.408-2.039-12.599-4.931-18.385-8.689c0.557-0.855,1.108-1.71,1.66-2.564c4.666,3.029,9.609,5.478,14.724,7.343
			C71.842,158.72,72.469,159.092,72.978,159.579z"/>
		<path class="st1" d="M56.766,93.02l16.682-12.063l-11.594,43.842c-3.942-2.493-7.57-5.43-10.809-8.76V97.157L56.766,93.02z"/>
		<path class="st1" d="M70.166,147.017c1.789,0.807,2.487,1.72,2.033,2.867c-0.194,0.504-0.643,0.816-1.341,0.935
			c-0.703,0.113-1.46-0.006-2.26-0.368c-0.795-0.368-1.368-0.85-1.698-1.428c-0.336-0.584-0.379-1.103-0.147-1.557
			C67.333,146.348,68.452,146.234,70.166,147.017z"/>
		<path class="st1" d="M53.463,81.113l3.303,11.907l-5.721,4.137v18.882c-4.023-4.13-7.446-8.862-10.117-14.043l4.71-20.883H53.463z
			"/>
		<polygon class="st1" points="53.208,74.445 55.372,81.113 53.463,81.113 45.638,81.113 43.475,81.113 45.281,74.445 		"/>
		<path class="st1" d="M52.23,156.978c0.005,0.006,0.01,0.006,0.01,0.011c-1.2,0.854-3.088,1.011-5.656,0.275
			c-2.568-0.74-5.055-2.136-7.322-4.173c-2.942-2.657-4.817-5.543-5.629-8.345c-0.806-2.813-0.378-4.803,1.071-5.954
			c0.243-0.075,0.486-0.151,0.73-0.232c0.135,0.05,0.271,0.097,0.411,0.147c0.475,0.638,0.286,1.314-0.578,2.049
			c-0.666,0.552-0.725,1.714-0.092,3.46c0.638,1.746,1.633,3.293,2.946,4.591c1.86,1.833,3.753,2.856,5.543,3.12
			c1.162,0.179,2.103,0.021,2.834-0.433c-0.222,0.277-0.444,0.552-0.666,0.827C47.904,153.994,50.04,155.541,52.23,156.978z"/>
		<path class="st1" d="M47.92,149.721c1.292,2.466,2.731,4.894,4.31,7.257c-2.19-1.438-4.326-2.985-6.397-4.656
			c0.221-0.275,0.443-0.551,0.666-0.827c0.302-0.183,0.567-0.421,0.794-0.708c0.184-0.227,0.324-0.498,0.427-0.811
			C47.785,149.89,47.855,149.808,47.92,149.721z"/>
		<path class="st1" d="M47.834,149.555c0.027,0.053,0.06,0.113,0.087,0.166c-0.065,0.087-0.135,0.169-0.2,0.255
			C47.763,149.84,47.801,149.7,47.834,149.555z"/>
		<path class="st1" d="M46.498,151.495c0.405-0.508,0.816-1.01,1.222-1.519c-0.103,0.313-0.243,0.584-0.427,0.811
			C47.066,151.074,46.801,151.312,46.498,151.495z"/>
	</g>
	<g>
		<path class="st3" d="M61.855,124.799c9.036,5.684,19.732,8.988,31.196,8.988c11.96,0,23.078-3.592,32.346-9.734"/>
		<line class="st3" x1="145.977" y1="100.38" x2="141.711" y2="81.113"/>
		<line class="st3" x1="131.664" y1="91.662" x2="133.237" y2="81.113"/>
		<path class="st3" d="M61.855,124.799c-3.942-2.493-7.57-5.43-10.809-8.76"/>
		<path class="st3" d="M138.299,112.431c-3.698,4.483-8.046,8.404-12.902,11.621"/>
		<path class="st3" d="M145.977,100.38c-2.07,4.342-4.655,8.381-7.678,12.052"/>
		<path class="st3" d="M40.928,101.996c2.671,5.18,6.094,9.912,10.117,14.043"/>
		<path class="st3" d="M145.977,100.38c3.639-7.636,5.684-16.18,5.684-25.21c0-32.368-26.242-58.605-58.61-58.605
			c-32.369,0-58.605,26.236-58.605,58.605c0,9.663,2.341,18.786,6.483,26.826"/>
		<path class="st4" d="M155.765,75.17c0-34.634-28.08-62.709-62.714-62.709c-34.635,0-62.71,28.075-62.71,62.709
			c0,34.634,28.075,62.721,62.71,62.721C127.685,137.891,155.765,109.804,155.765,75.17z"/>
		<polyline class="st3" points="141.711,81.113 143.334,81.113 141.17,74.445 133.237,74.445 131.437,81.113 133.237,81.113 		"/>
		<line class="st3" x1="133.237" y1="81.113" x2="141.711" y2="81.113"/>
		<polyline class="st3" points="53.463,81.113 55.372,81.113 53.208,74.445 45.281,74.445 43.475,81.113 45.638,81.113 		"/>
		<line class="st3" x1="53.463" y1="81.113" x2="45.638" y2="81.113"/>
		<line class="st3" x1="53.463" y1="81.113" x2="56.766" y2="93.02"/>
		<line class="st3" x1="56.766" y1="93.02" x2="56.816" y2="93.188"/>
		<line class="st3" x1="45.638" y1="81.113" x2="40.928" y2="101.996"/>
		<line class="st3" x1="131.664" y1="91.662" x2="114.344" y2="81.005"/>
		<polyline class="st3" points="131.664,91.662 136.482,94.632 138.299,112.431 		"/>
		<polyline class="st3" points="56.766,93.02 51.046,97.157 51.046,116.039 		"/>
		<line class="st3" x1="56.766" y1="93.02" x2="73.448" y2="80.956"/>
		<path class="st3" d="M100.578,62.506c3.801,0.227,7.598,0.665,11.393,1.303"/>
		<path class="st3" d="M88.205,62.446c-4.153,0.217-8.311,0.666-12.464,1.363"/>
		<polyline class="st3" points="111.971,63.809 110.528,66.15 114.344,81.005 		"/>
		<line class="st3" x1="73.448" y1="80.956" x2="61.855" y2="124.799"/>
		<line class="st3" x1="114.344" y1="81.005" x2="125.396" y2="124.053"/>
		<path class="st3" d="M100.578,62.506c-4.121-0.259-8.247-0.281-12.373-0.06"/>
		<polyline class="st3" points="75.741,63.809 77.363,66.15 73.448,80.956 		"/>
		<polyline class="st3" points="75.741,63.809 80.337,45.695 82.949,48.669 85.566,43.98 88.897,48.036 91.784,43.802 94.488,48.49 
			97.549,43.261 100.074,47.949 102.956,44.251 104.94,49.301 107.281,44.884 111.971,63.809 		"/>
		<polyline class="st3" points="100.578,62.506 97.733,53.535 90.703,53.535 88.205,62.446 		"/>
		<rect x="93.769" y="56.872" class="st3" width="1.011" height="2.071"/>
		
			<ellipse transform="matrix(0.9952 -0.0975 0.0975 0.9952 -8.718 9.6949)" class="st3" cx="94.884" cy="94.09" rx="91.385" ry="91.384"/>
	</g>
</g>
</svg>
